HIERARCHY
ROOT Hips
{
	OFFSET 0.000000 0.000000 0.000000
	CHANNELS 6 Xposition Yposition Zposition Zrotation Yrotation Xrotation 
	JOINT LowerBack
	{
		OFFSET 0.000000 0.000000 0.000000
		CHANNELS 3 Zrotation Yrotation Xrotation
		JOINT Spine
		{
			OFFSET 0.028270 2.035590 -0.193380
			CHANNELS 3 Zrotation Yrotation Xrotation
			JOINT Spine1
			{
				OFFSET 0.056720 2.048850 -0.042750
				CHANNELS 3 Zrotation Yrotation Xrotation
				JOINT Neck
				{
					OFFSET 0.000000 0.000000 0.000000
					CHANNELS 3 Zrotation Yrotation Xrotation
					JOINT Neck1
					{
						OFFSET -0.054170 1.746240 0.172020
						CHANNELS 3 Zrotation Yrotation Xrotation
						JOINT Head
						{
							OFFSET 0.104070 1.761360 -0.123970
							CHANNELS 3 Zrotation Yrotation Xrotation
							End Site
							{
								OFFSET 0.000000 0.000000 0.000000
							}
						}
					}
				}
				JOINT LeftShoulder
				{
					OFFSET 0.000000 0.000000 0.000000
					CHANNELS 3 Zrotation Yrotation Xrotation
					JOINT LeftArm
					{
						OFFSET 3.362410 1.200890 -0.311210
						CHANNELS 3 Zrotation Yrotation Xrotation
						JOINT LeftForeArm
						{
							OFFSET 4.983000 -0.000000 -0.000000
							CHANNELS 3 Zrotation Yrotation Xrotation
							JOINT LeftHand
							{
								OFFSET 3.483560 -0.000000 -0.000000
								CHANNELS 3 Zrotation Yrotation Xrotation
								JOINT LeftFingerBase
								{
									OFFSET 0.000000 0.000000 0.000000
									CHANNELS 3 Zrotation Yrotation Xrotation
									JOINT LeftHandIndex1
									{
										OFFSET 0.715260 -0.000000 -0.000000
										CHANNELS 3 Zrotation Yrotation Xrotation
										End Site
										{
											OFFSET 0.000000 0.000000 0.000000
										}
									}
								}
								JOINT LThumb
								{
									OFFSET 0.000000 0.000000 0.000000
									CHANNELS 3 Zrotation Yrotation Xrotation
									End Site
									{
										OFFSET 0.000000 0.000000 0.000000
									}
								}
							}
						}
					}
				}
				JOINT RightShoulder
				{
					OFFSET 0.000000 0.000000 0.000000
					CHANNELS 3 Zrotation Yrotation Xrotation
					JOINT RightArm
					{
						OFFSET -3.136600 1.374050 -0.404650
						CHANNELS 3 Zrotation Yrotation Xrotation
						JOINT RightForeArm
						{
							OFFSET -5.241900 -0.000000 -0.000000
							CHANNELS 3 Zrotation Yrotation Xrotation
							JOINT RightHand
							{
								OFFSET -3.444170 -0.000000 -0.000000
								CHANNELS 3 Zrotation Yrotation Xrotation
								JOINT RightFingerBase
								{
									OFFSET 0.000000 0.000000 0.000000
									CHANNELS 3 Zrotation Yrotation Xrotation
									JOINT RightHandIndex1
									{
										OFFSET -0.622530 -0.000000 -0.000000
										CHANNELS 3 Zrotation Yrotation Xrotation
										End Site
										{
											OFFSET 0.000000 0.000000 0.000000
										}
									}
								}
								JOINT RThumb
								{
									OFFSET 0.000000 0.000000 0.000000
									CHANNELS 3 Zrotation Yrotation Xrotation
									End Site
									{
										OFFSET 0.000000 0.000000 0.000000
									}
								}
							}
						}
					}
				}
			}
		}
	}
}
}
MOTION
Frames: 12
Frame Time: 0.008333
9.479117 18.451010 2.146254 66.695183 -89.519386 -18.343441 0.477019 -1.878828 -1.119092 0.056199 -1.912855 -3.451119 -2.371347 -1.952585 -1.937516 2.253803 -7.097931 -3.533980 -0.618590 -0.089458 0.745096 0.000000 0.000000 0.000000 16.902060 -2.102006 -0.148932 -49.030475 -32.794909 -9.616032 179.667953 -74.008298 179.812001 15.014568 -3.126605 -0.526190 -0.290999 0.796502 0.000000 0.000000 0.000000 0.000000 0.000000 0.000000 0.000000 -5.703828 -2.530762 0.886641 48.620373 45.631081 0.108485 0.147095 85.593104 -0.185666 -19.997667 11.335189 -2.166692 0.294688 -0.731074 -0.000000 0.000000 0.000000 0.000000 0.000000 0.000000 0.000000 
9.385658 18.538483 2.134738 64.149173 -89.404818 -15.104792 0.506966 -1.895514 -1.257251 0.109851 -1.929426 -3.478105 -2.185088 -1.972937 -1.889650 1.981878 -7.244836 -3.425312 -0.478683 -0.081369 0.771108 0.000000 0.000000 0.000000 17.451640 -1.454442 -0.252029 -46.833153 -33.508164 -12.548188 179.567408 -71.368390 179.796437 16.005455 -3.138870 -0.565803 -0.324086 0.811070 0.000000 0.000000 0.000000 0.000000 0.000000 0.000000 0.000000 -6.783792 -2.853926 0.628244 45.762375 45.775437 -2.981399 0.205008 89.135531 -0.203266 -21.251428 10.967953 -2.239467 0.324626 -0.749002 -0.000000 0.000000 0.000000 0.000000 0.000000 0.000000 0.000000 
9.294928 18.614776 2.123680 61.476348 -89.253165 -11.697970 0.546605 -1.907609 -1.383106 0.162012 -1.942013 -3.500833 -2.014573 -1.990561 -1.827745 1.724177 -7.363705 -3.290726 -0.353390 -0.074749 0.804288 0.000000 0.000000 0.000000 17.920951 -0.790665 -0.337886 -44.493989 -34.142303 -15.736838 179.475136 -68.926508 179.781495 17.015208 -3.131603 -0.603218 -0.360462 0.821435 -0.000000 0.000000 0.000000 0.000000 0.000000 0.000000 0.000000 -7.772059 -3.194178 0.361358 42.726053 45.712477 -6.328047 -179.718050 87.469721 179.779118 -22.617942 10.723786 -2.341547 0.358845 -0.765111 -0.000000 0.000000 0.000000 0.000000 0.000000 0.000000 0.000000 
9.206216 18.681173 2.113049 59.030014 -89.073140 -8.487981 0.598595 -1.912344 -1.488431 0.211868 -1.947915 -3.516633 -1.863378 -2.002454 -1.752065 1.487968 -7.452039 -3.129491 -0.247675 -0.069957 0.844705 0.000000 0.000000 0.000000 18.297425 -0.121018 -0.406993 -42.032166 -34.683419 -19.154292 179.402334 -66.693941 179.767964 18.000959 -3.101284 -0.635430 -0.399046 0.827288 -0.000000 0.000000 0.000000 0.000000 0.000000 0.000000 0.000000 -8.634018 -3.545817 0.094484 39.532171 45.438157 -9.876643 -179.631666 84.253992 179.762203 -24.079691 10.631738 -2.481423 0.397207 -0.779385 -0.000000 0.000000 0.000000 0.000000 0.000000 0.000000 0.000000 
9.118564 18.738661 2.102694 57.054744 -88.877153 -5.727800 0.660635 -1.906566 -1.567784 0.257865 -1.943766 -3.523510 -1.732946 -2.004910 -1.663560 1.278501 -7.512250 -2.944506 -0.164482 -0.067133 0.891336 0.000000 0.000000 0.000000 18.579302 0.545501 -0.461740 -39.486336 -35.113924 -22.754628 179.357418 -64.679240 179.756491 18.925367 -3.047235 -0.660327 -0.438612 0.828568 -0.000000 0.000000 0.000000 0.000000 0.000000 0.000000 0.000000 -9.346697 -3.904976 -0.164585 36.221723 44.953338 -13.562686 -179.547049 81.243100 179.746761 -25.613920 10.697962 -2.664384 0.439356 -0.791710 -0.000000 0.000000 0.000000 0.000000 0.000000 0.000000 0.000000 
9.031196 18.788082 2.092422 55.649407 -88.677806 -3.527474 0.725863 -1.884342 -1.618135 0.297989 -1.923295 -3.519364 -1.623106 -1.991365 -1.558102 1.095813 -7.562730 -2.745038 -0.095662 -0.065530 0.941455 0.000000 0.000000 0.000000 18.777199 1.197616 -0.507994 -36.915279 -35.426132 -26.473559 179.343174 -62.885612 179.747456 19.760663 -2.973924 -0.677105 -0.477841 0.825672 -0.000000 0.000000 0.000000 0.000000 0.000000 0.000000 0.000000 -9.967447 -4.266508 -0.402328 32.888107 44.247458 -17.391536 -179.477220 78.315997 179.736404 -26.702465 10.295141 -2.685640 0.479243 -0.793377 -0.000000 0.000000 0.000000 0.000000 0.000000 0.000000 0.000000 
8.943038 18.829891 2.081997 54.882699 -88.490993 -1.959533 0.792158 -1.852586 -1.636079 0.332397 -1.892933 -3.504210 -1.529339 -1.967840 -1.448283 0.940422 -7.588071 -2.535075 -0.057190 -0.066130 0.993345 0.000000 0.000000 0.000000 18.900428 1.851166 -0.545230 -34.392987 -35.585503 -30.223915 179.361712 -61.306317 179.741064 20.491298 -2.886434 -0.685962 -0.515777 0.818887 -0.000000 0.000000 0.000000 0.000000 0.000000 0.000000 0.000000 -10.377144 -4.636490 -0.630167 29.539452 43.362412 -21.129762 -179.424423 75.773626 179.725499 -28.319049 10.643784 -2.948449 0.527244 -0.801385 -0.000000 0.000000 0.000000 0.000000 0.000000 0.000000 0.000000 
8.853198 18.863989 2.071116 54.802097 -88.325058 -1.079217 0.847004 -1.807770 -1.623768 0.359018 -1.848539 -3.477362 -1.447957 -1.929919 -1.330071 0.806666 -7.615365 -2.328713 -0.036583 -0.067794 1.042950 0.000000 0.000000 0.000000 18.975380 2.496606 -0.579150 -32.006316 -35.588772 -33.906354 179.407220 -59.932791 179.737154 21.113426 -2.791816 -0.687794 -0.551445 0.809048 -0.000000 0.000000 0.000000 0.000000 0.000000 0.000000 0.000000 -10.662264 -5.012837 -0.838276 26.290991 42.297339 -24.778985 -179.393995 73.470787 179.717692 -29.917000 11.031098 -3.231227 0.576511 -0.806165 -0.000000 0.000000 0.000000 0.000000 0.000000 0.000000 0.000000 
8.761019 18.890288 2.059604 55.426703 -88.185472 -0.914721 0.881416 -1.751434 -1.583935 0.377233 -1.791157 -3.438467 -1.374116 -1.878476 -1.201026 0.686638 -7.668049 -2.141094 -0.024377 -0.069587 1.085854 0.000000 0.000000 0.000000 19.027839 3.138126 -0.613231 -29.843486 -35.435041 -37.414697 179.471229 -58.751910 179.735366 21.634538 -2.696323 -0.684603 -0.584115 0.796998 -0.000000 0.000000 0.000000 0.000000 0.000000 0.000000 0.000000 -10.887753 -5.402597 -1.021751 23.255539 41.072921 -28.298904 -179.387631 71.362933 179.713971 -31.248098 11.211959 -3.435080 0.623246 -0.804814 -0.000000 0.000000 0.000000 0.000000 0.000000 0.000000 0.000000 
8.665640 18.908369 2.047124 56.858951 -88.073948 -1.572012 0.883643 -1.687512 -1.523228 0.385606 -1.724161 -3.388878 -1.302994 -1.816695 -1.061938 0.576550 -7.759260 -1.983829 -0.016378 -0.071019 1.118738 0.000000 0.000000 0.000000 19.088600 3.776739 -0.648425 -27.988265 -35.121854 -40.643632 179.545280 -57.737523 179.735238 22.067934 -2.595758 -0.676296 -0.613477 0.783321 -0.000000 0.000000 0.000000 0.000000 0.000000 0.000000 0.000000 -11.079389 -5.809949 -1.179501 20.514464 39.712807 -31.605264 -179.401387 69.458406 179.713365 -32.360243 11.229613 -3.568610 0.667279 -0.798452 -0.000000 0.000000 0.000000 0.000000 0.000000 0.000000 0.000000 
8.566641 18.917384 2.033616 59.127719 -87.988527 -3.084918 0.847822 -1.620986 -1.449250 0.384164 -1.652409 -3.330506 -1.230514 -1.749330 -0.913096 0.471752 -7.897817 -1.867864 -0.007850 -0.071586 1.138603 0.000000 0.000000 0.000000 19.178177 4.419504 -0.683339 -26.502377 -34.659062 -43.500541 179.622012 -56.867707 179.736212 22.433276 -2.489892 -0.663577 -0.639546 0.768748 -0.000000 0.000000 0.000000 0.000000 0.000000 0.000000 0.000000 -11.267840 -6.235919 -1.311360 18.136399 38.245560 -34.625010 -179.429133 67.748811 179.714929 -33.284533 11.097526 -3.633821 0.708285 -0.787831 -0.000000 0.000000 0.000000 0.000000 0.000000 0.000000 0.000000 
8.463619 18.916351 2.018901 62.330661 -87.924044 -5.553694 0.765548 -1.555639 -1.372579 0.371535 -1.579603 -3.266543 -1.154281 -1.680021 -0.755125 0.372074 -8.087437 -1.800403 0.004671 -0.070958 1.143725 0.000000 0.000000 0.000000 19.316886 5.063572 -0.716233 -25.425755 -34.056295 -45.911753 179.695402 -56.114628 179.737767 22.748538 -2.367436 -0.645052 -0.662555 0.753652 -0.000000 0.000000 0.000000 0.000000 0.000000 0.000000 0.000000 -11.473300 -6.676917 -1.415872 16.170253 36.696141 -37.298453 -179.464918 66.222143 179.717800 -34.050461 10.831309 -3.635318 0.746020 -0.773731 -0.000000 0.000000 0.000000 0.000000 0.000000 0.000000 0.000000 
